# xmcd CD database file
#
# Track frame offsets:
#	150
#	21556
#	34880
#	64427
#	85836
#	103131
#	119277
#	132285
#	152937
#	174635
#	195397
#	211028
#	228378
#	249146
#	274221
#	292603
#	315474
#	337312
#
# Disc length: 4731 seconds
#
# Revision: 0
# Processed by: cddbd v1.5.1PL0 Copyright (c) Steve Scherf et al.
# Submitted via: CDex 1.50beta10
#
DISCID=05127912
DTITLE=KARIBIAN DREAMS - BEST OF SALSA
DYEAR=1900
DGENRE=Salsa
TTITLE0=VICTORIA DE VILLA -  OYE
TTITLE1=RAUL RAMIREZ - RAN KAN KAN
TTITLE2=LAURA LOPEZ - BEMBELEGUA
TTITLE3=RAUL RAMIREZ - HABLEME DE JATIBONICO
TTITLE4=COMPANIA DA SILVA - MAS QUE NADA
TTITLE5=RAUL RAMIREZ - JUAN GONZALES
TTITLE6=CONCHITA MORENO - ANGEL PARA UNA TAMBORA
TTITLE7=RICARDO VEGA - LA BOMBA
TTITLE8=CONCHITA MORENO - ESTAMOS SOLOS
TTITLE9=LAURA LOPEZ and RAUL RAMIREZ - CABALLERO Y DAMAS
TTITLE10=LAURA LOPEZ - MI SO DENBOSO
TTITLE11=LOS GARDENIAS - KIRKIRIKI
TTITLE12=LAURA LOPEZ - CUANDO TE VEA
TTITLE13=RAUL RAMIREZ - ETNIA
TTITLE14=MANUELA MONTERO - CAMINO DEL CORAZON
TTITLE15=CONCHITA MORENO - APIADATA DE MI
TTITLE16=LAURA LOPEZ - SENOR AMANTE
TTITLE17=LISA DE MAYA - LA FIESTA
EXTD=
EXTT0=
EXTT1=
EXTT2=
EXTT3=
EXTT4=
EXTT5=
EXTT6=
EXTT7=
EXTT8=
EXTT9=
EXTT10=
EXTT11=
EXTT12=
EXTT13=
EXTT14=
EXTT15=
EXTT16=
EXTT17=
PLAYORDER=
